<mxfile host="app.diagrams.net" modified="2024-03-09T19:48:09.771Z" agent="Mozilla/5.0 (Windows NT 10.0; Win64; x64) AppleWebKit/537.36 (KHTML, like Gecko) Chrome/122.0.0.0 Safari/537.36" etag="ES0AXqAnTrAzXzQ_CXwk" version="24.0.4" type="device">
  <diagram name="Page-1" id="6XNE2JIzCOfqmP9j9ff_">
    <mxGraphModel dx="1221" dy="618" grid="1" gridSize="10" guides="1" tooltips="1" connect="1" arrows="1" fold="1" page="1" pageScale="1" pageWidth="827" pageHeight="1169" math="0" shadow="0">
      <root>
        <mxCell id="0" />
        <mxCell id="1" parent="0" />
        <mxCell id="sHWpuXxCoodqRIOrMABK-6" style="rounded=0;orthogonalLoop=1;jettySize=auto;html=1;exitX=0.25;exitY=1;exitDx=0;exitDy=0;entryX=0.5;entryY=0;entryDx=0;entryDy=0;" edge="1" parent="1" source="sHWpuXxCoodqRIOrMABK-1" target="sHWpuXxCoodqRIOrMABK-4">
          <mxGeometry relative="1" as="geometry" />
        </mxCell>
        <mxCell id="sHWpuXxCoodqRIOrMABK-8" style="rounded=0;orthogonalLoop=1;jettySize=auto;html=1;exitX=0.75;exitY=1;exitDx=0;exitDy=0;entryX=0.5;entryY=0;entryDx=0;entryDy=0;" edge="1" parent="1" source="sHWpuXxCoodqRIOrMABK-1" target="sHWpuXxCoodqRIOrMABK-7">
          <mxGeometry relative="1" as="geometry" />
        </mxCell>
        <mxCell id="sHWpuXxCoodqRIOrMABK-1" value="&lt;font style=&quot;font-size: 16px;&quot;&gt;Entrance&lt;/font&gt;" style="rounded=0;whiteSpace=wrap;html=1;" vertex="1" parent="1">
          <mxGeometry x="340" y="90" width="120" height="60" as="geometry" />
        </mxCell>
        <mxCell id="sHWpuXxCoodqRIOrMABK-2" value="" style="endArrow=classic;html=1;rounded=0;" edge="1" parent="1">
          <mxGeometry width="50" height="50" relative="1" as="geometry">
            <mxPoint x="925" y="150" as="sourcePoint" />
            <mxPoint x="924.5" y="90" as="targetPoint" />
          </mxGeometry>
        </mxCell>
        <mxCell id="sHWpuXxCoodqRIOrMABK-3" value="N" style="text;html=1;align=center;verticalAlign=middle;resizable=0;points=[];autosize=1;strokeColor=none;fillColor=none;" vertex="1" parent="1">
          <mxGeometry x="910" y="50" width="30" height="30" as="geometry" />
        </mxCell>
        <mxCell id="sHWpuXxCoodqRIOrMABK-10" style="edgeStyle=orthogonalEdgeStyle;rounded=0;orthogonalLoop=1;jettySize=auto;html=1;exitX=0;exitY=0.5;exitDx=0;exitDy=0;entryX=1;entryY=0.5;entryDx=0;entryDy=0;" edge="1" parent="1" source="sHWpuXxCoodqRIOrMABK-4" target="sHWpuXxCoodqRIOrMABK-9">
          <mxGeometry relative="1" as="geometry" />
        </mxCell>
        <mxCell id="sHWpuXxCoodqRIOrMABK-15" style="edgeStyle=orthogonalEdgeStyle;rounded=0;orthogonalLoop=1;jettySize=auto;html=1;exitX=1;exitY=0.5;exitDx=0;exitDy=0;entryX=0.5;entryY=0;entryDx=0;entryDy=0;" edge="1" parent="1" source="sHWpuXxCoodqRIOrMABK-4" target="sHWpuXxCoodqRIOrMABK-13">
          <mxGeometry relative="1" as="geometry" />
        </mxCell>
        <mxCell id="sHWpuXxCoodqRIOrMABK-32" style="edgeStyle=orthogonalEdgeStyle;rounded=0;orthogonalLoop=1;jettySize=auto;html=1;exitX=0.5;exitY=1;exitDx=0;exitDy=0;entryX=0.5;entryY=0;entryDx=0;entryDy=0;" edge="1" parent="1" source="sHWpuXxCoodqRIOrMABK-4" target="sHWpuXxCoodqRIOrMABK-11">
          <mxGeometry relative="1" as="geometry" />
        </mxCell>
        <mxCell id="sHWpuXxCoodqRIOrMABK-4" value="&lt;font style=&quot;font-size: 16px;&quot;&gt;1&lt;/font&gt;" style="rounded=0;whiteSpace=wrap;html=1;" vertex="1" parent="1">
          <mxGeometry x="220" y="200" width="60" height="40" as="geometry" />
        </mxCell>
        <mxCell id="sHWpuXxCoodqRIOrMABK-22" style="edgeStyle=orthogonalEdgeStyle;rounded=0;orthogonalLoop=1;jettySize=auto;html=1;exitX=0.5;exitY=1;exitDx=0;exitDy=0;entryX=0.5;entryY=0;entryDx=0;entryDy=0;" edge="1" parent="1" source="sHWpuXxCoodqRIOrMABK-7" target="sHWpuXxCoodqRIOrMABK-21">
          <mxGeometry relative="1" as="geometry" />
        </mxCell>
        <mxCell id="sHWpuXxCoodqRIOrMABK-7" value="&lt;font style=&quot;font-size: 16px;&quot;&gt;4&lt;/font&gt;" style="rounded=0;whiteSpace=wrap;html=1;" vertex="1" parent="1">
          <mxGeometry x="520" y="200" width="60" height="40" as="geometry" />
        </mxCell>
        <mxCell id="sHWpuXxCoodqRIOrMABK-9" value="&lt;font style=&quot;font-size: 16px;&quot;&gt;7&lt;/font&gt;" style="rounded=0;whiteSpace=wrap;html=1;" vertex="1" parent="1">
          <mxGeometry x="60" y="200" width="60" height="40" as="geometry" />
        </mxCell>
        <mxCell id="sHWpuXxCoodqRIOrMABK-11" value="&lt;font style=&quot;font-size: 16px;&quot;&gt;2&lt;/font&gt;" style="rounded=0;whiteSpace=wrap;html=1;" vertex="1" parent="1">
          <mxGeometry x="220" y="310" width="60" height="40" as="geometry" />
        </mxCell>
        <mxCell id="sHWpuXxCoodqRIOrMABK-13" value="&lt;font style=&quot;font-size: 16px;&quot;&gt;3&lt;/font&gt;" style="rounded=0;whiteSpace=wrap;html=1;" vertex="1" parent="1">
          <mxGeometry x="320" y="370" width="60" height="40" as="geometry" />
        </mxCell>
        <mxCell id="sHWpuXxCoodqRIOrMABK-34" style="edgeStyle=orthogonalEdgeStyle;rounded=0;orthogonalLoop=1;jettySize=auto;html=1;exitX=0.5;exitY=1;exitDx=0;exitDy=0;entryX=0;entryY=0.5;entryDx=0;entryDy=0;dashed=1;" edge="1" parent="1" source="sHWpuXxCoodqRIOrMABK-16" target="sHWpuXxCoodqRIOrMABK-33">
          <mxGeometry relative="1" as="geometry" />
        </mxCell>
        <mxCell id="sHWpuXxCoodqRIOrMABK-16" value="&lt;font style=&quot;font-size: 16px;&quot;&gt;Lake&lt;/font&gt;" style="rounded=0;whiteSpace=wrap;html=1;" vertex="1" parent="1">
          <mxGeometry x="210" y="510" width="210" height="120" as="geometry" />
        </mxCell>
        <mxCell id="sHWpuXxCoodqRIOrMABK-17" value="" style="rounded=0;whiteSpace=wrap;html=1;" vertex="1" parent="1">
          <mxGeometry x="260" y="330" width="20" height="20" as="geometry" />
        </mxCell>
        <mxCell id="sHWpuXxCoodqRIOrMABK-19" style="edgeStyle=orthogonalEdgeStyle;rounded=0;orthogonalLoop=1;jettySize=auto;html=1;entryX=0;entryY=0.5;entryDx=0;entryDy=0;dashed=1;" edge="1" parent="1" source="sHWpuXxCoodqRIOrMABK-17" target="sHWpuXxCoodqRIOrMABK-16">
          <mxGeometry relative="1" as="geometry" />
        </mxCell>
        <mxCell id="sHWpuXxCoodqRIOrMABK-20" style="edgeStyle=orthogonalEdgeStyle;rounded=0;orthogonalLoop=1;jettySize=auto;html=1;entryX=0.668;entryY=0.022;entryDx=0;entryDy=0;entryPerimeter=0;" edge="1" parent="1" source="sHWpuXxCoodqRIOrMABK-13" target="sHWpuXxCoodqRIOrMABK-16">
          <mxGeometry relative="1" as="geometry" />
        </mxCell>
        <mxCell id="sHWpuXxCoodqRIOrMABK-25" style="edgeStyle=orthogonalEdgeStyle;rounded=0;orthogonalLoop=1;jettySize=auto;html=1;exitX=0.5;exitY=1;exitDx=0;exitDy=0;entryX=0.5;entryY=0;entryDx=0;entryDy=0;" edge="1" parent="1" source="sHWpuXxCoodqRIOrMABK-21" target="sHWpuXxCoodqRIOrMABK-24">
          <mxGeometry relative="1" as="geometry" />
        </mxCell>
        <mxCell id="sHWpuXxCoodqRIOrMABK-21" value="&lt;font style=&quot;font-size: 16px;&quot;&gt;5&lt;/font&gt;" style="rounded=0;whiteSpace=wrap;html=1;" vertex="1" parent="1">
          <mxGeometry x="520" y="310" width="60" height="40" as="geometry" />
        </mxCell>
        <mxCell id="sHWpuXxCoodqRIOrMABK-28" style="edgeStyle=orthogonalEdgeStyle;rounded=0;orthogonalLoop=1;jettySize=auto;html=1;exitX=0.5;exitY=1;exitDx=0;exitDy=0;entryX=0.5;entryY=0;entryDx=0;entryDy=0;" edge="1" parent="1" source="sHWpuXxCoodqRIOrMABK-24" target="sHWpuXxCoodqRIOrMABK-26">
          <mxGeometry relative="1" as="geometry" />
        </mxCell>
        <mxCell id="sHWpuXxCoodqRIOrMABK-24" value="&lt;font style=&quot;font-size: 16px;&quot;&gt;6&lt;/font&gt;" style="rounded=0;whiteSpace=wrap;html=1;" vertex="1" parent="1">
          <mxGeometry x="520" y="420" width="60" height="40" as="geometry" />
        </mxCell>
        <mxCell id="sHWpuXxCoodqRIOrMABK-27" style="edgeStyle=orthogonalEdgeStyle;rounded=0;orthogonalLoop=1;jettySize=auto;html=1;" edge="1" parent="1" source="sHWpuXxCoodqRIOrMABK-26" target="sHWpuXxCoodqRIOrMABK-16">
          <mxGeometry relative="1" as="geometry" />
        </mxCell>
        <mxCell id="sHWpuXxCoodqRIOrMABK-36" style="edgeStyle=orthogonalEdgeStyle;rounded=0;orthogonalLoop=1;jettySize=auto;html=1;entryX=0.5;entryY=1;entryDx=0;entryDy=0;" edge="1" parent="1" source="sHWpuXxCoodqRIOrMABK-26" target="sHWpuXxCoodqRIOrMABK-35">
          <mxGeometry relative="1" as="geometry" />
        </mxCell>
        <mxCell id="sHWpuXxCoodqRIOrMABK-26" value="&lt;font style=&quot;font-size: 16px;&quot;&gt;Merchant&lt;/font&gt;" style="rounded=0;whiteSpace=wrap;html=1;" vertex="1" parent="1">
          <mxGeometry x="505" y="540" width="90" height="60" as="geometry" />
        </mxCell>
        <mxCell id="sHWpuXxCoodqRIOrMABK-29" value="30 feet above" style="text;html=1;align=center;verticalAlign=middle;resizable=0;points=[];autosize=1;strokeColor=none;fillColor=none;" vertex="1" parent="1">
          <mxGeometry x="410" y="538" width="100" height="30" as="geometry" />
        </mxCell>
        <mxCell id="sHWpuXxCoodqRIOrMABK-30" value="20&lt;div&gt;feet&lt;/div&gt;&lt;div&gt;below&lt;/div&gt;" style="text;html=1;align=center;verticalAlign=middle;resizable=0;points=[];autosize=1;strokeColor=none;fillColor=none;" vertex="1" parent="1">
          <mxGeometry x="260" y="240" width="50" height="60" as="geometry" />
        </mxCell>
        <mxCell id="sHWpuXxCoodqRIOrMABK-46" style="edgeStyle=orthogonalEdgeStyle;rounded=0;orthogonalLoop=1;jettySize=auto;html=1;entryX=1;entryY=0.5;entryDx=0;entryDy=0;dashed=1;" edge="1" parent="1" source="sHWpuXxCoodqRIOrMABK-33" target="sHWpuXxCoodqRIOrMABK-45">
          <mxGeometry relative="1" as="geometry" />
        </mxCell>
        <mxCell id="sHWpuXxCoodqRIOrMABK-33" value="&lt;font style=&quot;font-size: 16px;&quot;&gt;8&lt;/font&gt;" style="rounded=0;whiteSpace=wrap;html=1;" vertex="1" parent="1">
          <mxGeometry x="610" y="680" width="60" height="40" as="geometry" />
        </mxCell>
        <mxCell id="sHWpuXxCoodqRIOrMABK-40" style="edgeStyle=orthogonalEdgeStyle;rounded=0;orthogonalLoop=1;jettySize=auto;html=1;exitX=0.5;exitY=0;exitDx=0;exitDy=0;entryX=0.5;entryY=1;entryDx=0;entryDy=0;" edge="1" parent="1" source="sHWpuXxCoodqRIOrMABK-35" target="sHWpuXxCoodqRIOrMABK-38">
          <mxGeometry relative="1" as="geometry" />
        </mxCell>
        <mxCell id="sHWpuXxCoodqRIOrMABK-35" value="&lt;font style=&quot;font-size: 16px;&quot;&gt;Shrine&lt;/font&gt;" style="rounded=0;whiteSpace=wrap;html=1;" vertex="1" parent="1">
          <mxGeometry x="715" y="350" width="100" height="70" as="geometry" />
        </mxCell>
        <mxCell id="sHWpuXxCoodqRIOrMABK-37" value="Rubbles" style="text;html=1;align=center;verticalAlign=middle;resizable=0;points=[];autosize=1;strokeColor=none;fillColor=none;" vertex="1" parent="1">
          <mxGeometry x="760" y="468" width="70" height="30" as="geometry" />
        </mxCell>
        <mxCell id="sHWpuXxCoodqRIOrMABK-44" style="edgeStyle=orthogonalEdgeStyle;rounded=0;orthogonalLoop=1;jettySize=auto;html=1;entryX=0.5;entryY=1;entryDx=0;entryDy=0;" edge="1" parent="1" source="sHWpuXxCoodqRIOrMABK-38" target="sHWpuXxCoodqRIOrMABK-42">
          <mxGeometry relative="1" as="geometry" />
        </mxCell>
        <mxCell id="sHWpuXxCoodqRIOrMABK-38" value="&lt;font style=&quot;font-size: 16px;&quot;&gt;Boss&lt;/font&gt;" style="rounded=0;whiteSpace=wrap;html=1;" vertex="1" parent="1">
          <mxGeometry x="695" y="150" width="140" height="120" as="geometry" />
        </mxCell>
        <mxCell id="sHWpuXxCoodqRIOrMABK-41" value="Traps" style="text;html=1;align=center;verticalAlign=middle;resizable=0;points=[];autosize=1;strokeColor=none;fillColor=none;" vertex="1" parent="1">
          <mxGeometry x="715" y="270" width="50" height="30" as="geometry" />
        </mxCell>
        <mxCell id="sHWpuXxCoodqRIOrMABK-42" value="&lt;font style=&quot;font-size: 16px;&quot;&gt;outside&lt;/font&gt;" style="rounded=0;whiteSpace=wrap;html=1;" vertex="1" parent="1">
          <mxGeometry x="732.5" y="70" width="65" height="35" as="geometry" />
        </mxCell>
        <mxCell id="sHWpuXxCoodqRIOrMABK-45" value="" style="rounded=0;whiteSpace=wrap;html=1;" vertex="1" parent="1">
          <mxGeometry x="800" y="240" width="35" height="30" as="geometry" />
        </mxCell>
      </root>
    </mxGraphModel>
  </diagram>
</mxfile>
